CASINO ROYALE . . . the greatest JAMES BOND! 007 show on earth !


Format : AVI
Format/Info : Audio Video Interleave
File size : 641 MiB
Duration : 2h 4mn
Overall bit rate : 722 Kbps
Writing application : MEncoder SVN-r29352(20090610-gcc4.3.3)
Writing library : MPlayer

Video
Format : avc1
Codec ID : avc1
Duration : 2h 4mn
Bit rate : 582 Kbps
Width : 480 pixels
Height : 360 pixels
Display aspect ratio : 4:3
Frame rate : 25.000 fps
Bits/(Pixel*Frame) : 0.135
Stream size : 516 MiB (81%)

Audio
ID : 1
Format : MPEG Audio
Format version : Version 1
Format profile : Layer 3
Mode : Joint stereo
Format_Settings_ModeExtension : MS Stereo
Codec ID : 55
Codec ID/Hint : MP3
Duration : 2h 4mn
Bit rate mode : Constant
Bit rate : 128 Kbps
Channel(s) : 2 channels
Sampling rate : 44.1 KHz
Stream size : 114 MiB (18%)
Alignment : Aligned on interleaves
Interleave, duration : 26 ms (0.65 video frame)
Interleave, preload duration : 522 ms
Writing library : LAME3.98